# xmcd
#
# Track frame offsets:
#	150
#	19417
#	30232
#	42485
#	55737
#	67475
#	79937
#	88465
#	101765
#	113185
#	125425
#	138270
#	148580
#	160137
#	171632
#	183575
#	194937
#	208325
#	220277
#	230427
#	243402
#	253705
#
# Disc length: 3554
#
# Revision: 1
# Processed by: cddbd v1.5.1PL0 Copyright (c) Steve Scherf et al.
# Submitted via: CDex 1.51
# Normalized: r0:DSETVAR1,TDELIM( - )
#
DISCID=600de016
DTITLE=Various Artist - Gd 1510
DYEAR=1900
DGENRE=Country
TTITLE0=Ray Charles - I Can't Stop Loving You
TTITLE1=Jim Reeves - He'll Have To Go
TTITLE2=Tammy Wynette - 'Til I Get It Right
TTITLE3=Merle Haggard - Swingin' Doors
TTITLE4=Sonny James - A Little Band Of Gold
TTITLE5=Wynn Stewart - Wishful Thinking
TTITLE6=Johnny Cash - Guess Things Happen That Way
TTITLE7=Anne Murray - He Thinks I Still Care
TTITLE8=Tennessee Ernie Ford - Blackberry Boogie
TTITLE9=Eddy Arnold - Make The World Go Away
TTITLE10=Mickey Gilley - City Lights
TTITLE11=Loretta Lynn - Fist City
TTITLE12=George Jones - I'll Share My World With You
TTITLE13=Marty Robbins - Begging To You
TTITLE14=Ray Price - My Shoes Keep Walking Back To You
TTITLE15=Buck Owens - Excuse Me [I Think I've Got A Heartache]
TTITLE16=Bill Anderson and Mary Lou Turner - Sometimes
TTITLE17=The Wilburn Brothers - Which One Is To Blame
TTITLE18=Tom T. Hall - Country Is
TTITLE19=Elvis Presley - Don't Cry Daddy
TTITLE20=George Hamilton IV - Abilene
TTITLE21=Hank Williams - Jambalaya [On The Bayou]
EXTD=
EXTT0=
EXTT1=
EXTT2=
EXTT3=
EXTT4=
EXTT5=
EXTT6=
EXTT7=
EXTT8=
EXTT9=
EXTT10=
EXTT11=
EXTT12=
EXTT13=
EXTT14=
EXTT15=
EXTT16=
EXTT17=
EXTT18=
EXTT19=
EXTT20=
EXTT21=
PLAYORDER=
